<?xml version="1.0" encoding="utf-8"?>
<!-- Generator: Adobe Illustrator 25.3.0, SVG Export Plug-In . SVG Version: 6.00 Build 0)  -->
<svg version="1.1" xmlns="http://www.w3.org/2000/svg" xmlns:xlink="http://www.w3.org/1999/xlink" x="0px" y="0px"
	 viewBox="0 0 1639.95 1016.28" style="enable-background:new 0 0 1639.95 1016.28;" xml:space="preserve">
<style type="text/css">
	.st0{fill:#775602;}
	.st1{fill:#4C3604;}
	.st2{fill:#5E4108;}
	.st3{fill:#A07324;}
	.st4{display:none;}
	.st5{display:inline;}
	.st6{fill:#E8DBA6;}
	.st7{fill:#D8CB95;}
	.st8{fill:#A59D7C;}
	.st9{fill:#F7EECB;}
	.st10{fill:#A05C18;}
	.st11{fill:#CC9955;}
</style>
<g id="marco">
	<g id="color">
		<path class="st0" d="M1609.06,981.36c0,0,4.18,0.38,10.31-11.62l-1.68-926.06c0,0,0.67-13.87-16.44-17.47
			c-18.67-3.92-631.09-4.83-631.09-4.83H865.79c0,0-45.75-12.43-101.24,0l-362.44,3.09l-364.48,3.6c0,0-5.2-0.03-6.33,4.08
			c-1.13,4.11-1.15,68.31-1.15,68.31L25.23,646.8l0.21,327.44c0,0,1.91,12.84,12.54,16.51c10.62,3.67,370.62,2.37,370.62,2.37
			l352.9,2.25c0,0,52.36,11.03,108.8,0l83.19-0.53l482.14-10.05L1609.06,981.36z"/>
	</g>
	<g id="sombra">
		<path class="st1" d="M1591.69,982.68c0,0,11.59-4.81,12.16-11.28c0.57-6.47,1.95-841.58,1.95-841.58V41.99
			c0,0,0.58-15.96-15.94-16.08l10.55,0.03c0,0,14.68,4.13,16.28,16.28s2.64,926.13,2.64,926.13s-2.41,10.99-12.5,14.33H1591.69z"/>
		<path class="st1" d="M756.44,23.17c3.47-2.09,72.71-17.28,110.68,0.18C867.11,23.34,792.83,34.58,756.44,23.17z"/>
		<path class="st1" d="M758.66,996.37c0,0,68.18,10.82,108.23,1.19C866.89,997.56,817.97,982.5,758.66,996.37z"/>
	</g>
	<g id="sombra_debil_1_">
		<path class="st2" d="M797.48,975.07c0,0,26.24-2.68,46.65-0.44c0,0-24.58-5.69-23.92-9.27
			C820.21,965.36,798.47,976.73,797.48,975.07z"/>
	</g>
	<g id="luz_1_">
		<path class="st3" d="M42.09,29.11c0,0-4.13,3.03-4.12,5.55c0.01,2.52,9.41,931.41-4.12,933.25c0,0-2.3,15.15,2.75,23.85
			c0,0-11.66-5.53-13.62-16.87s5.72-939.02,5.72-939.02S32.9,27.99,42.09,29.11z"/>
	</g>
	<g id="contorno">
		<g>
			<path d="M761.45,24.49c4.1,0.82,8.25,1.39,12.4,1.83c4.15,0.49,8.32,0.81,12.49,1.06c8.34,0.49,16.7,0.65,25.05,0.5l6.27-0.14
				c2.09-0.03,4.17-0.18,6.26-0.27c4.18-0.15,8.34-0.53,12.51-0.8c2.09-0.12,4.17-0.33,6.25-0.53l6.24-0.6l12.47-1.41
				c-4.13,0.66-8.27,1.31-12.41,1.9l-6.24,0.74c-2.08,0.25-4.16,0.51-6.25,0.67c-4.17,0.39-8.34,0.74-12.53,0.94
				c-2.09,0.1-4.18,0.27-6.28,0.32l-6.28,0.18c-8.38,0.07-16.77-0.07-25.12-0.73C777.94,27.45,769.58,26.49,761.45,24.49z"/>
		</g>
		<g>
			<path d="M1619.1,380.5c0.03-185.99,0.06-332.9-0.93-338.54c-2.32-13.16-16.75-17.29-17.36-17.46l-0.19-0.06l-733.26-4.12
				c-50.55-10.61-103.61-0.97-108.72,0L37.49,27.65l-0.21,0.02c-0.37,0.06-8.84,1.44-10.05,7.84c-0.01,0.02-0.01,0.05-0.01,0.07
				v0.03c0.66,7.64-0.54,240.53-2.01,469c-1.47,226.31-3.31,464.18-3.87,470.5l0.14,0.01c1.06,10.07,12.58,17.58,13.08,17.89
				l0.36,0.24l723.57,4.62h0.01c2.81,0.62,24.19,5.08,56.48,5.08c15.3,0,33.07-1.01,52.46-3.9l736.4-15.12
				c8.96,1.24,16.52-12.28,16.84-12.85l0.19-0.36v-0.4C1619,878.68,1619.05,602.45,1619.1,380.5z M1604.15,980.94l-0.13-0.02
				l-736.94,15.14v0.01c-62.23,9.3-107.42-1.02-108.19-1.19v-0.01l-723.06-4.62c-1.86-1.29-10.61-7.74-11.37-15.51l-0.1,0.01
				c0.63-15.18,2.44-251.83,3.86-471.49c0.49-75.58,2.82-446.19,2-467.38c0.9-3.89,6.63-5.08,7.42-5.23l721.2-7.33v0.02
				c0.55-0.11,55.87-11.1,108.26-0.02h0.07l733.02,4.12c1.57,0.5,13.17,4.48,15.02,15.04c0.95,5.38,0.92,159.53,0.89,338.02
				c-0.05,221.64-0.1,497.4,1.76,589.47C1615.75,973.62,1609.76,981.78,1604.15,980.94z"/>
			<path d="M27.22,35.58v0.03h-0.01C27.21,35.6,27.21,35.59,27.22,35.58z"/>
		</g>
		<g class="st4">
			<polygon class="st5" points="1605.8,129.82 1605.81,234.2 1605.67,338.59 1605.37,547.37 1604.74,756.15 1604.42,860.54 
				1603.94,964.92 1603.93,860.53 1604.07,756.15 1604.37,547.37 1605.01,338.59 1605.33,234.2 			"/>
		</g>
		<g class="st4">
			<path class="st5" d="M38.12,41.23l1.51,115.88l1.14,115.88c0.69,77.26,1.24,154.51,1.58,231.77
				c0.22,77.26,0.25,154.52-0.24,231.78c-0.26,38.63-0.64,77.26-1.39,115.88c-0.41,19.31-0.9,38.62-1.65,57.92
				c-0.38,9.65-0.82,19.3-1.44,28.94c-0.31,4.82-0.67,9.64-1.15,14.44c-0.26,2.4-0.51,4.8-0.87,7.19c-0.18,1.19-0.38,2.39-0.64,3.56
				c-0.28,1.17-0.51,2.38-1.15,3.42c0.63-1.04,0.86-2.25,1.14-3.42c0.25-1.18,0.44-2.37,0.62-3.57c0.36-2.39,0.6-4.79,0.84-7.19
				c0.45-4.81,0.79-9.62,1.08-14.44c0.58-9.64,0.97-19.29,1.31-28.94c0.66-19.3,1.08-38.61,1.4-57.92
				c0.68-38.62,1.01-77.25,1.21-115.88c0.38-77.26,0.23-154.52-0.09-231.77c-0.23-77.26-0.67-154.52-1.25-231.77L38.12,41.23z"/>
		</g>
		<g class="st4">
			<path class="st5" d="M858.4,996.03c-3.71-0.77-7.43-1.47-11.17-2.03c-1.87-0.32-3.74-0.56-5.61-0.84l-5.63-0.71
				c-7.51-0.86-15.06-1.44-22.61-1.62c-7.56-0.32-15.12-0.01-22.65,0.55l-5.65,0.53c-1.88,0.2-3.74,0.53-5.62,0.78l-2.81,0.39
				c-0.93,0.15-1.86,0.36-2.79,0.54l-5.58,1.09c7.33-1.92,14.8-3.39,22.36-4.1c7.56-0.71,15.16-1.02,22.75-0.78
				c7.59,0.27,15.16,0.84,22.68,1.86C843.59,992.73,851.07,994.08,858.4,996.03z"/>
		</g>
	</g>
</g>
<g id="hojas">
	<g id="color_1_">
		<path class="st6" d="M76.34,49.23L64.8,49.56l2.76,369.55l-1.75,326.52l-3.15,122l-3.26,87.89l12.7,2.29L76.34,49.23l4.58-0.13
			v-3.9h35.82l-0.13-4.13c15.74-1.99,312.93-3.38,312.93-3.38c187.75-20.35,387.27,6.13,387.27,6.13
			c123.4-26.6,349.67-12.38,349.68-9.94c0.01,1.52,118.56,6.14,207.65,9.39l162.05,0.26l-0.08,3.45l40.24,0.18l6.61,912.02
			l-397.39,10.3c-98.59,13.06-298.76,8.07-298.76,8.07c-48.36,0.72-67.58-13.35-67.58-13.35l0,0c-12.98,14.11-78.4,16.69-78.4,16.69
			l-325.94-10.17l-174.02-5.6l-80.07-2.58c0,0,7.53,1-37.92-0.21c-24.14-0.64-40.68-2.8-50.82-4.53"/>
	</g>
	<g id="sombra_debil">
		<path class="st7" d="M1339.93,41.59l194.48-0.07l0.03,3.05c0,0,36.22,3.66,39.51,2.32l7.49,910.74l-88.53,4.78l0.48-913.27
			L1339.93,41.59z"/>
		<polygon class="st7" points="405.54,39.7 116.62,41.08 132.34,546.17 133.28,47.5 		"/>
		<path class="st7" d="M727.28,35.87c0,0,60.04,11.49,19.68,146.32c0,0-14.22,127.49,1.38,253.61c0,0,21.55,110.06,16.05,167.39
			c0,0,0.92,264.15-1.38,264.61c0,0-1.38,117.16-50.9,113.38c0,0,79.99,5.35,107.64-16.18l-6.98-920.39L727.28,35.87z"/>
		<path class="st7" d="M117.76,45.2H81.69l-0.76,4.36H64.8l2.1,169.3l1.02,295.12l-1.33,172.96l-4.85,208.81l-2.33,59.78
			c0,0,15.53,3.95,33.79,4.71l41.08,1.71l-0.23-174.96l-0.23-250.62L117.76,45.2z"/>
	</g>
	<g id="sombra_fuerte">
		<path class="st8" d="M1545.84,477.2c0,0,9.63,179.31,2.29,293.96L1545.84,477.2z"/>
		<path class="st8" d="M1556.39,773.46c0,0,6.42-252.69,0-362.98V773.46z"/>
		<path class="st8" d="M1564.18,753.74c0,0,8.48-168.31,0-265.07V753.74z"/>
		<polygon class="st8" points="1554.22,961.2 1558.68,960.96 1553.64,854.63 		"/>
		<path class="st8" d="M1511.91,962.41l2.68-164.41c0,0-6.82,163.46-4.98,165.54L1511.91,962.41z"/>
		<path class="st8" d="M1494.45,964.43h4c0,0-7.76-201.52-6.59-222.16C1491.87,742.27,1490.3,961.88,1494.45,964.43z"/>
		<polygon class="st8" points="104.09,338.6 79.36,118.43 93.42,112.01 77.23,112.01 72.33,50.02 82.11,49.56 86.39,109.26 
			109.32,108.64 87.92,122.1 		"/>
		<polygon class="st8" points="110.05,45.2 123.18,263.82 116.37,45.2 		"/>
		<polygon class="st8" points="93.19,960.23 80.16,959.62 101.48,657.43 		"/>
		<polygon class="st8" points="1535.41,45.38 1538.79,45.78 1532.57,195.34 		"/>
		<polygon class="st8" points="1485.69,47.19 1515.19,46.53 1510.13,164.44 1512.67,47.98 		"/>
		<polygon class="st8" points="1498.53,48.36 1494.45,145.64 1495.24,50.53 1474.18,48.7 		"/>
		<polygon class="st8" points="111.57,960.23 111.43,783.7 113.96,961.1 		"/>
		<polygon class="st8" points="134.27,961.31 129.46,961.1 133.2,743.03 		"/>
		<path class="st8" d="M170.67,45.18h-38.58c-1.07,0-1.93,0.88-1.91,1.94L133,194.08L133.58,48c0-0.16,0.12-0.28,0.28-0.29
			l36.82-1.95C171.07,45.74,171.05,45.18,170.67,45.18z"/>
	</g>
	<g id="luz">
		<path class="st9" d="M93.19,960.23l20.77,0.87l-3.08-213.94c0,0-8.49-31.52-9.4-44.03C100.58,690.63,93.19,960.23,93.19,960.23z"
			/>
		<polygon class="st9" points="1512.67,47.98 1506.4,47.98 1505.94,314.4 		"/>
		<path class="st9" d="M1509.61,963.54l5.05-167.15c0,0-1.36-2.14-2.75,0C1511.91,796.39,1503.18,921.56,1509.61,963.54z"/>
	</g>
	<g id="contorno_1_">
		<g>
			<path class="st10" d="M1545.84,477.2c0.32,12.25,0.51,24.49,0.77,36.74l0.56,36.74c0.36,24.5,0.53,48.99,0.81,73.49
				c0.11,24.5,0.31,48.99,0.34,73.49l0.01,36.75c-0.07,12.25-0.07,24.5-0.2,36.75c-0.32-12.25-0.52-24.49-0.78-36.74l-0.57-36.74
				c-0.35-24.5-0.53-48.99-0.8-73.49c-0.11-24.5-0.31-48.99-0.34-73.49l-0.01-36.75C1545.71,501.7,1545.71,489.45,1545.84,477.2z"/>
		</g>
		<g>
			<polygon class="st10" points="1556.39,773.46 1555.9,728.09 1555.62,682.71 1555.39,591.97 1555.62,501.22 1555.9,455.85 
				1556.39,410.48 1556.88,455.85 1557.16,501.22 1557.39,591.97 1557.15,682.71 1556.88,728.09 			"/>
		</g>
		<g>
			<path class="st10" d="M1564.18,753.74c-0.23-11.04-0.32-22.09-0.49-33.13l-0.28-33.13c-0.16-22.09-0.15-44.18-0.23-66.27
				c0.08-22.09,0.07-44.18,0.23-66.27l0.28-33.13c0.17-11.04,0.26-22.09,0.49-33.13c0.23,11.04,0.32,22.09,0.49,33.13l0.28,33.13
				c0.16,22.09,0.15,44.18,0.23,66.27c-0.08,22.09-0.07,44.18-0.23,66.27l-0.28,33.13C1564.51,731.65,1564.41,742.69,1564.18,753.74
				z"/>
		</g>
		<g>
			<path class="st10" d="M1494.5,965.43l1.03-0.02v-0.04L1494.5,965.43z"/>
			<path class="st10" d="M1584.07,922.79c-0.09-22.32-0.3-55-0.61-97.12c-0.54-73.17-1.42-176.4-2.53-298.55
				c-2-219.81-4.26-445.55-4.73-478.27h0.01l-0.05-2c-11.68,0.3-25.07-0.56-39.8-2.57l0.04-1.81l0.03-1.02h-0.99
				c-20.28-0.62-40.54-0.95-60.81-1.22c-20.26-0.25-40.53-0.39-60.8-0.46c-20.27-0.07-40.54-0.03-60.81,0.06l-30.4,0.19l-30.4,0.29
				v0.08l-36.75-1.65c-184.1-14.59-294.37-12.88-354.46-8.87c-34.63,2.31-56.66,5.61-69.05,7.97c-5.83,1.11-16.28,3.38-19.31,4.96
				c-8.13-1.15-193.66-26.6-389.21-6.11l-307.86,3.4l0.14,4.47l-34.8,0.04h-0.64l0.04,0.64l0.23,3.32H64.86l-0.44-0.02l-0.32,0.3
				c-0.64,0.6-0.7,0.66,0.22,71.47c2.09,161.14,7.01,538.49-5.91,835.17l-0.03,0.49l0.38,0.31c0.44,0.38,4.91,3.69,26.05,4.6
				c19.07,0.81,43.37,1.81,48.46,2.02c0.18,0.01,0.33,0.01,0.46,0.02c0.33,0.01,0.5,0.02,0.5,0.02l549.84,17.61
				c16.72,1.08,31.42,1.54,44.37,1.54c66.84,0,86.45-12.29,90.96-16.14c0.15,0.22,0.34,0.45,0.57,0.69
				c4.22,4.41,25.79,14.72,134.06,14.72c54.07,0,129.76-2.57,235.7-9.74l304.77-6.19l1.03-0.06l87.51-4.72l-0.01-0.12l0.53-0.06
				C1584.18,960.04,1584.23,960,1584.07,922.79z M114.94,960.15l-3.83-214.52l-0.46,0.01l2.3,214.43
				c-5.87-0.25-12.38-0.52-18.74-0.79l7.56-301.84l-0.57-0.01l-8.98,301.76c-2.49-0.1-4.95-0.21-7.32-0.31
				c-17.25-0.74-23.06-3.15-24.47-3.9c12.89-296.64,7.98-673.65,5.89-834.69c-0.5-38.54-0.85-64.89-0.64-69.73h15.01l3.99,57.66
				l0.04,0.48h0.48l21.09-0.03l-20.4,11.65l-0.25,0.15l0.02,0.28l17.26,219.8l0.34-0.02L86.59,120.98l21.78-12.37l1.61-0.91h-1.85
				l-22.44-0.03L81.56,45.8l34.2,0.05l5.16,165.87l5.69,182.58l0.04,1.25l6.22,199.88l0.4,365.47
				C130.71,960.79,123.67,960.51,114.94,960.15z M132.31,46.89c-0.01,0.02-0.02,0.05-0.03,0.08v0.41l0.52,481.44l-4.15-133.33
				l-0.06-2.01l-5.76-185.08l-5.18-166.33l268.69-2.97c-25.06,0.55-71.16,1.57-116.87,2.7c-39.51,0.98-71,1.84-93.61,2.56
				c-13.42,0.44-23.82,0.82-30.91,1.16C134.17,46.03,132.64,46.21,132.31,46.89z M684.16,978.56l-548.89-17.59l-0.38-354.46
				l-0.02-11.12l-0.59-547.2c12.78-1.7,181.66-5.62,271.37-7.5c5.94-0.71,11.88-1.37,17.81-2c192.07-20.14,374.42,4.09,388.32,6.01
				l6.96,919.12C816.29,966.2,792.76,985.52,684.16,978.56z M1189.64,969.63c-150.43,10.17-258.05,12.44-319.86,6.75
				c-47.67-4.38-49.03-12.08-49.04-12.16c0,0,0,0-0.01-0.01h0.01l-6.96-919.22l-0.01-0.59l1.04-0.33c5.72-1.92,29.39-8.6,89.6-12.42
				c59.87-3.8,169.34-5.31,350.94,9.08L1442,49.14h0.04l52.19,2.35c-0.12,16.35-1.72,234.76-2.67,451.08
				c-1.82,415.88,0.31,452.36,1.47,456.33l0.34,4.55L1189.64,969.63z M1582.06,958.7l-26.26,1.42l-1.98-105.49h-0.38l0.36,105.6
				l-43.44,2.34c-0.02-0.12-0.03-0.24-0.04-0.37c-0.04-0.41-0.06-0.83-0.08-1.26c-0.04-0.85-0.07-1.72-0.08-2.58
				c-0.03-1.74-0.04-3.47-0.04-5.21c0.01-3.48,0.05-6.96,0.1-10.45c0.11-6.96,0.27-13.93,0.45-20.9c0.36-13.93,0.79-27.87,1.24-41.8
				c0.92-27.87,1.94-55.74,3.03-83.6l-0.57-0.02c-1.33,27.85-2.59,55.71-3.74,83.57c-0.58,13.93-1.13,27.87-1.6,41.8
				c-0.24,6.97-0.46,13.94-0.63,20.92c-0.08,3.49-0.15,6.97-0.19,10.47c-0.02,1.74-0.02,3.49-0.01,5.24
				c0.01,0.88,0.03,1.76,0.06,2.65c0.02,0.44,0.04,0.88,0.08,1.34c0,0.1,0.01,0.2,0.02,0.31l-12.99,0.7l-0.39-5.09l-0.14-0.15
				c-4.14-13.64-0.9-599.14,1.4-907.6l0.01-0.96l-19.39-0.88h0.47c5.88-0.03,11.77-0.04,17.66,0c5.55,0.04,11.12,0.09,16.66,0.26
				l-5.02,265.44l0.46,0.01L1513.67,48l0.02-0.99l-0.99-0.03c-5.91-0.18-11.8-0.24-17.7-0.28c-5.89-0.04-11.79-0.03-17.68,0
				c-11.77,0.06-23.53,0.21-35.29,0.44h-0.07l-114.33-5.15l25.4-0.16c20.27-0.09,40.53-0.13,60.79-0.06
				c20.26,0.07,40.53,0.21,60.79,0.46c19.93,0.27,39.87,0.59,59.78,1.19l-2.3,153.57l0.9,0.02l3.33-150.72
				c12.82,1.74,24.62,2.62,35.2,2.62c0.9,0,1.8-0.01,2.68-0.02C1575.1,111.42,1583.06,929.22,1582.06,958.7z"/>
		</g>
	</g>
	<g id="muecas_hoja">
		<g>
			<path class="st11" d="M1454.97,944.62c-1.13-7.89,1.04-11.87,3.08-13.83c2.98-2.86,7.96-3.66,14.79-2.35
				c0.05,0.01,0.1,0.02,0.16,0.03h0.17l1.67-0.01l-0.62-846.88l-2,0.01v0.07c-0.01,0-0.03,0.01-0.04,0.01l-0.86,0.2l-1.74,0.3
				c-0.58,0.06-1.16,0.12-1.74,0.17c-0.58-0.01-1.16,0.06-1.73,0c-2.28-0.11-4.52-0.77-6.12-2.26c-1.64-1.45-2.6-3.6-3.07-5.85
				c-0.24-1.13-0.37-2.3-0.4-3.48c-0.02-0.59,0-1.18,0.02-1.77c0.01-0.31,0.05-0.6,0.05-0.9c2.33,0.04,4.66,0.06,7,0.02l4.96-0.08
				l2.5-0.08c0.83-0.06,1.67,0.01,2.49-0.19l-0.02-0.61c-13.18-1.11-26.44-1.24-39.66-1.62l-39.69-1.08l-79.39-2.25l-79.38-2.37
				l-19.84-0.6l-9.92-0.3c-1.64-0.01-3.29-0.19-4.94-0.31l-4.94-0.4l-9.89-0.79l-9.91-0.69c-6.6-0.48-13.21-0.86-19.82-1.24
				c-26.44-1.51-52.92-2.44-79.4-2.78c-26.48-0.34-52.97-0.22-79.44,0.52c-26.48,0.7-52.94,1.9-79.37,3.64
				c-13.21,0.86-26.42,1.86-39.61,3.02c-6.6,0.57-13.19,1.19-19.78,1.85c-6.59,0.66-13.19,1.32-19.66,2.94l0.06,0.48
				c6.22,0,12.34-0.65,18.48-1.3c1.27,5.28,0.67,9.63-1.77,12.96c-4.52,6.14-13.71,6.82-13.72,6.82l-1.04-0.04l1.83,854.5l2-0.01
				v-0.08c3.03-0.02,7.12-0.03,9.69,2.72c1.93,2.06,2.74,5.47,2.41,10.14c-4.7-0.11-9.42-0.12-14.17,0.05l-0.03,0.32
				c6.48,1.64,13.12,1.93,19.71,2.17c6.6,0.19,13.2,0.31,19.79,0.36c13.19,0.12,26.38,0.06,39.56-0.06
				c26.37-0.27,52.73-0.81,79.08-1.46c52.71-1.3,105.42-3.16,158.08-5.07c26.33-0.7,52.69-0.94,79.04-1.13
				c26.35-0.18,52.71-0.18,79.07-0.16l79.07,0.3l39.53,0.27c13.18,0.01,26.36,0.56,39.55-0.44v-0.37
				C1468.39,944.98,1461.68,944.73,1454.97,944.62z M1435.57,944.41l-39.54-0.37l-79.08-0.49c-26.36-0.09-52.72-0.15-79.09-0.03
				c-26.36,0.13-52.72,0.26-79.1,0.96c-52.7,1.98-105.36,3.9-158.06,5.25c-26.35,0.69-52.7,1.25-79.04,1.55
				c-13.18,0.14-26.35,0.21-39.52,0.11c-6.58-0.04-13.16-0.15-19.74-0.34c-1.19-0.05-2.39-0.09-3.58-0.12
				c0.35-5.21-0.64-9.1-2.95-11.57c-3.15-3.36-7.92-3.37-11.15-3.35l-1.83-850.48c2.65-0.36,9.75-1.81,13.95-6.98
				c3.11-3.85,3.99-8.85,2.59-14.9c6.35-0.64,12.7-1.25,19.06-1.81c13.18-1.17,26.37-2.18,39.57-3.06c26.4-1.77,52.84-3,79.29-3.73
				c52.9-1.44,105.86-1.02,158.71,1.88c6.6,0.36,13.21,0.73,19.81,1.2l9.9,0.66l9.9,0.77l4.95,0.38c1.65,0.12,3.3,0.29,4.97,0.31
				l9.93,0.32l19.84,0.64l79.38,2.54l79.37,2.53l39.7,1.21c6.61,0.18,13.22,0.44,19.84,0.54c0.47,0.01,0.93,0.02,1.4,0.02
				c-0.05,0.27-0.06,0.55-0.09,0.82c-0.05,0.63-0.09,1.26-0.09,1.89c-0.01,1.27,0.07,2.54,0.3,3.81c0.44,2.51,1.5,5.09,3.52,6.94
				c2,1.89,4.76,2.67,7.31,2.8c0.65,0.06,1.29,0,1.94,0.01c0.63-0.05,1.27-0.11,1.9-0.18c0.63-0.1,1.25-0.19,1.87-0.31l0.51-0.11
				l0.62,842.68c-7.31-1.33-12.75-0.33-16.18,2.94c-2.35,2.26-4.86,6.73-3.71,15.25C1447.16,944.51,1441.36,944.51,1435.57,944.41z"
				/>
		</g>
		<g>
			<path class="st11" d="M771.75,951.05c-0.42-4.7,0.54-8.17,2.84-10.32c3.38-3.15,8.71-2.59,9.43-2.49
				c0.05,0.01,0.08,0.01,0.08,0.01h1.92l0.23-857.33v-0.9l-0.89-0.09c-0.12-0.01-11.27-1.27-14.84-7.78
				c-1.62-2.97-1.44-6.66,0.57-10.99c5.1,0.89,10.18,1.85,15.29,2.83l0.19-0.65c-6.11-2.44-12.56-3.86-19.01-4.94
				c-6.46-1.08-12.96-1.91-19.45-2.61c-13.01-1.41-26.05-2.26-39.09-2.89c-26.09-1.23-52.2-1.51-78.3-1.37
				c-52.2,0.33-104.37,2.26-156.49,5.03c-13.03,0.71-26.04,1.45-39.08,2.37l-39.02,2.87c-26.02,1.75-52.06,3.22-78.12,4.2
				c-52.08,1.99-104.35,2.84-156.26-1.5l-0.08,0.39c4.32,1.38,8.75,1.96,13.2,2.36c0,0.01,0,0.02,0.01,0.04l0.02,0.32
				c0.02,0.2,0,0.43,0.01,0.64c0.02,0.43-0.01,0.87-0.02,1.31c0,0.44-0.06,0.88-0.07,1.32l-0.15,1.31c-0.24,1.74-0.84,3.44-1.84,4.8
				c-0.99,1.37-2.38,2.35-3.99,2.79c-1.6,0.43-3.35,0.28-5.06,0.02v-0.03h-1.89c-0.18,8.94-0.1,17.87-0.12,26.81V187l-0.01,107.23
				l-0.02,214.46l-0.09,428.93h2v-0.03c3.9-0.18,6.58,0.44,7.98,1.86c1.51,1.53,1.36,3.82,1.24,5.66c-0.04,0.57-0.07,1.07-0.05,1.51
				c-3.73,0.46-7.43,1.11-11.07,2.08l0.07,0.41c6.49-0.6,12.94-1.17,19.42-1.64c6.48-0.46,12.98-0.74,19.48-0.92
				c13-0.35,26.02-0.36,39.03-0.27c6.5,0.06,13.01,0.16,19.52,0.32l9.75,0.28l9.7,0.77c6.48,0.55,12.98,0.99,19.49,1.43
				c6.5,0.48,13,0.82,19.5,1.22c52.04,2.93,104.15,4.19,156.25,4.9c52.1,0.7,104.2,0.57,156.3,0.09c26.05-0.25,52.1-0.6,78.15-1.07
				l39.06-0.78l19.54-0.46c6.51-0.19,13.01-0.5,19.51-1.27l-0.01-0.32C781.58,951.1,776.67,951.02,771.75,951.05z M747.43,951.54
				l-39.06,0.73c-26.04,0.43-52.08,0.75-78.13,0.96c-52.08,0.44-104.17,0.4-156.26-0.2c-52.07-0.67-104.16-1.89-156.15-4.77
				c-6.5-0.39-13-0.73-19.49-1.2c-6.49-0.44-12.98-0.87-19.48-1.42l-9.77-0.76l-9.78-0.28c-6.51-0.16-13.03-0.27-19.54-0.34
				c-13.04-0.13-26.08-0.02-39.11,0.45c-6.52,0.24-13.03,0.58-19.54,1.09c-2.1,0.16-4.21,0.34-6.31,0.58c0-0.31,0.03-0.71,0.06-1.14
				c0.13-2,0.33-5.02-1.82-7.19c-1.83-1.85-4.9-2.65-9.4-2.45l0.09-426.91l0.08-214.46L163.86,187l0.02-53.61l0.01-26.81
				c-0.01-8.26,0.06-16.5-0.08-24.76c1.8,0.27,3.68,0.39,5.55-0.11c2.04-0.54,3.88-1.85,5.08-3.54c1.22-1.7,1.92-3.63,2.39-5.57
				c0.1-0.48,0.19-0.98,0.27-1.47c0.05-0.5,0.1-1,0.12-1.5c-0.01-0.5,0-1-0.06-1.51c-0.03-0.23-0.04-0.45-0.09-0.68
				c1.34,0.11,2.67,0.21,4.01,0.33c6.52,0.48,13.05,0.86,19.57,1.13c3.26,0.16,6.53,0.27,9.79,0.35l9.79,0.28
				c6.53,0.07,13.05,0.22,19.58,0.23c6.53-0.02,13.06,0.02,19.58-0.05l19.58-0.3c13.04-0.38,26.09-0.69,39.13-1.3
				c26.08-0.99,52.12-2.65,78.17-4.23l39.04-2.73c13-0.89,26.03-1.62,39.05-2.33c52.08-2.79,104.22-4.75,156.37-5.1
				c26.08-0.15,52.16,0.12,78.19,1.33c13.01,0.63,26.02,1.47,38.96,2.86c6.47,0.7,12.92,1.52,19.33,2.59
				c0.62,0.1,1.23,0.21,1.85,0.32c-2.08,4.72-2.17,8.86-0.29,12.29c3.47,6.34,12.57,8.23,15.48,8.68l-0.23,854.43
				c-1.51-0.17-7-0.49-10.78,3.03c-2.76,2.58-3.94,6.54-3.49,11.82C762.31,951.15,754.87,951.45,747.43,951.54z"/>
		</g>
	</g>
</g>
</svg>
